# xmcd
#
# Track frame offsets:
#	150
#	14283
#	36115
#	47758
#	63486
#	76701
#	91280
#	113075
#	126820
#	139894
#	154980
#	173763
#
# Disc length: 2480 seconds
#
# Revision: 0
# Processed by: cddbd v1.5.1PL0 Copyright (c) Steve Scherf et al.
# Submitted via: EasyCDDAExtractor 8.2.1.1
#
DISCID=9509ae0c
DTITLE=Various Artist - Tales Of The Blues
DYEAR=2005
DGENRE=Blues
TTITLE0=Muddy Waters - Rollin' Stone
TTITLE1=Howlin' Wolf - Dust My Broom
TTITLE2=Sonny Boy Williamson II - Don't Start Me To Talkin'
TTITLE3=Memphis Slim - Three Woman Blues
TTITLE4=Lonnie Johnson - Rambler's Blues
TTITLE5=Otis Spann - My Home Is In The Delta
TTITLE6=Lightnin' Hopkins - Goin' Back Home
TTITLE7=Roosevelt Sykes - Third Degree Blues
TTITLE8=Dinah Washington - Chewin' Mama Blues
TTITLE9=Bessie Smith - Jazzbo Brown From Memphis Town
TTITLE10=Mississippi John Hurt - Stagger Lee (Live)
TTITLE11=Big Bill Broonzy - Black, White And Brown (Live)
EXTD=
EXTT0=
EXTT1=
EXTT2=
EXTT3=
EXTT4=
EXTT5=
EXTT6=
EXTT7=
EXTT8=
EXTT9=
EXTT10=
EXTT11=
PLAYORDER=
